<mxfile><diagram id="SZ6J1zYDoMKMSnKAFRun" name="Page-1"><mxGraphModel dx="990" dy="567" grid="1" gridSize="10" guides="1" tooltips="1" connect="1" arrows="1" fold="1" page="1" pageScale="1" pageWidth="850" pageHeight="1100" math="0" shadow="0"><root><mxCell id="0"/><mxCell id="1" parent="0"/><mxCell id="14" style="edgeStyle=none;html=1;exitX=0.5;exitY=1;exitDx=0;exitDy=0;" edge="1" parent="1" source="4"><mxGeometry relative="1" as="geometry"><mxPoint x="330" y="180" as="targetPoint"/><Array as="points"><mxPoint x="530" y="180"/></Array></mxGeometry></mxCell><mxCell id="4" value="&lt;b&gt;CALL DO&lt;/b&gt;&lt;span&gt;&amp;nbsp;3 times&lt;/span&gt;" style="html=1;dashed=0;whitespace=wrap;" vertex="1" parent="1"><mxGeometry x="480" y="90" width="100" height="50" as="geometry"/></mxCell><mxCell id="6" value="&lt;b&gt;IF&lt;/b&gt;&amp;nbsp; push_button = 1 &lt;b&gt;THEN&lt;/b&gt;&lt;br&gt;&lt;b&gt;CALL DO&lt;/b&gt; 3 times&lt;br&gt;&lt;div style=&quot;text-align: left&quot;&gt;&lt;span&gt;&lt;b&gt;ENDIF&lt;/b&gt;&lt;/span&gt;&lt;/div&gt;" style="shape=partialRectangle;whiteSpace=wrap;html=1;left=0;right=0;fillColor=none;" vertex="1" parent="1"><mxGeometry x="30" y="105" width="150" height="60" as="geometry"/></mxCell><mxCell id="11" style="edgeStyle=none;html=1;entryX=0;entryY=0.5;entryDx=0;entryDy=0;" edge="1" parent="1" source="8" target="4"><mxGeometry relative="1" as="geometry"/></mxCell><mxCell id="13" style="edgeStyle=none;html=1;exitX=0.5;exitY=1;exitDx=0;exitDy=0;entryX=0.5;entryY=0;entryDx=0;entryDy=0;" edge="1" parent="1" source="8" target="10"><mxGeometry relative="1" as="geometry"/></mxCell><mxCell id="8" value="push_button = 1&lt;br&gt;?" style="shape=rhombus;html=1;dashed=0;whitespace=wrap;perimeter=rhombusPerimeter;" vertex="1" parent="1"><mxGeometry x="250" y="80" width="160" height="70" as="geometry"/></mxCell><mxCell id="9" value="" style="endArrow=classic;html=1;entryX=0.5;entryY=0;entryDx=0;entryDy=0;" edge="1" parent="1" target="8"><mxGeometry width="50" height="50" relative="1" as="geometry"><mxPoint x="330" y="40" as="sourcePoint"/><mxPoint x="340" y="10" as="targetPoint"/></mxGeometry></mxCell><mxCell id="10" value="" style="html=1;dashed=0;whitespace=wrap;" vertex="1" parent="1"><mxGeometry x="280" y="220" width="100" height="50" as="geometry"/></mxCell><mxCell id="15" value="YES" style="text;strokeColor=none;fillColor=none;align=left;verticalAlign=middle;spacingTop=-1;spacingLeft=4;spacingRight=4;rotatable=0;labelPosition=right;points=[];portConstraint=eastwest;" vertex="1" parent="1"><mxGeometry x="400" y="91" width="20" height="14" as="geometry"/></mxCell><mxCell id="16" value="NO" style="text;strokeColor=none;fillColor=none;align=left;verticalAlign=middle;spacingTop=-1;spacingLeft=4;spacingRight=4;rotatable=0;labelPosition=right;points=[];portConstraint=eastwest;" vertex="1" parent="1"><mxGeometry x="270" y="150" width="20" height="14" as="geometry"/></mxCell></root></mxGraphModel></diagram></mxfile>